<?xml version="1.0" encoding="UTF-8"?>
<svg viewBox="0 0 22 23" xmlns="http://www.w3.org/2000/svg">
    <path
        d="M6.14194203,3.6041308 L4.68773022,2.14991899 C2.25904658,4.00151541 0.652517335,6.87735669 0.5,10.1305934 L2.53389761,10.1305934 C2.68641495,7.43705333 4.06806608,5.07833177 6.14194203,3.6041308 Z M19.7545639,10.1305934 L21.7884615,10.1305934 C21.6359442,6.87735669 20.0294149,3.99891682 17.5907367,2.14991899 L16.1365249,3.6041308 C18.2203954,5.07833177 19.6022464,7.43705333 19.7545639,10.1305934 Z M17.7532486,10.6403171 C17.7532486,7.51940869 15.5868228,4.90582527 12.6710032,4.21619905 L12.6710032,3.52417414 C12.6714814,3.1197917 12.5110528,2.73183423 12.225111,2.44589246 C11.9391693,2.15995069 11.5512118,1.9995221 11.1468293,2.00000025 C10.7424469,1.9995221 10.3544894,2.15995069 10.0685477,2.44589246 C9.7826059,2.73183423 9.6221773,3.1197917 9.62265545,3.52417414 L9.62265545,4.21619905 C6.70423726,4.90822397 4.54041007,7.51940869 4.54041007,10.6403171 L4.54041007,16.2322862 L2.50651246,18.2661839 L2.50651246,19.2832326 L19.7895449,19.2832326 L19.7895449,18.2661839 L17.7556473,16.2322862 L17.7556473,10.6403171 L17.7532486,10.6403171 Z M11.1442308,22.3315804 C11.2867535,22.3315804 11.4190818,22.3213859 11.5514101,22.2916021 C12.2077545,22.1584918 12.7558607,21.7095311 13.0156164,21.0922521 C13.1181609,20.8471849 13.1781284,20.5849271 13.1781284,20.3000815 L9.11033314,20.3000815 C9.11033314,21.4170761 10.0248375,22.3315804 11.1442308,22.3315804 L11.1442308,22.3315804 Z">
    s</path>
</svg>