<?xml version="1.0" encoding="UTF-8"?>
<svg viewBox="0 0 53 50" version="1.1" xmlns="http://www.w3.org/2000/svg">
    <g>
        <path
            d="M41.4371507,6.73984241 L25.2463853,23.6765879 C24.9168801,24.0060501 24.7317625,24.4529226 24.7317625,24.9188829 C24.7317625,25.3848433 24.9168801,25.8317157 25.2463853,26.161178 L41.4338233,42.3504983 C37.0343263,46.5256636 31.0888915,49.0871824 24.5452707,49.0871824 C10.9921699,49.0871824 0.0051148386,38.0986006 0.0051148386,24.5435912 C0.0051148386,10.9885818 10.9920935,0 24.5452707,0 C31.0905413,0 37.0373242,2.56281055 41.4371507,6.73984241 Z"
            fill="#4CB8A8"></path>
        <path
            d="M51.9830208,24.2711306 C52.1552136,24.4433182 52.2519509,24.6768579 52.2519509,24.9203716 C52.2519509,25.1638853 52.1552136,25.3974249 51.9830208,25.5696126 L44.1929689,33.3609622 C44.0208403,33.5331785 43.7873311,33.6299359 43.5438425,33.6299359 C43.3003538,33.6299359 43.0668447,33.5331785 42.894716,33.3609622 L35.1046641,25.5696889 C34.746082,25.2110999 34.746082,24.6297196 35.1046641,24.2711306 L42.894716,16.48001 C43.0668447,16.3077937 43.3003538,16.2110363 43.5438425,16.2110363 C43.7873311,16.2110363 44.0208403,16.3077937 44.1929689,16.48001 L51.9830208,24.2711306 Z"
            fill="#F9A066"></path>
    </g>
    </svg>